<svg width="30" height="30" viewBox="0 0 30 30" fill="none" xmlns="http://www.w3.org/2000/svg">
<path d="M21.4843 6.56622H26.4809L21.222 1.4011V6.30426C21.222 6.44863 21.3396 6.56622 21.4843 6.56622Z" fill="#303322"/>
<path d="M21.4843 8.21417C20.4312 8.21417 19.5743 7.35741 19.5743 6.30426V0.922852H5.87225C4.17692 0.922852 2.79779 2.30198 2.79779 3.99731V25.9734C2.79779 27.6687 4.17692 29.0479 5.87225 29.0479H23.8933C25.5888 29.0479 26.9677 27.6687 26.9677 25.9734V8.21417H21.4843ZM19.6009 22.2363H8.9879C8.53283 22.2363 8.16393 21.8674 8.16393 21.4124C8.16393 20.9573 8.53283 20.5884 8.9879 20.5884H19.6009C20.0561 20.5884 20.4248 20.9573 20.4248 21.4124C20.4248 21.8674 20.0561 22.2363 19.6009 22.2363ZM8.16393 18.1165C8.16393 17.6614 8.53283 17.2925 8.9879 17.2925H18.4585C18.9137 17.2925 19.2824 17.6614 19.2824 18.1165C19.2824 18.5715 18.9134 18.9404 18.4585 18.9404H8.9879C8.53283 18.9404 8.16393 18.5715 8.16393 18.1165ZM20.6029 15.6445H8.9879C8.53283 15.6445 8.16393 15.2756 8.16393 14.8206C8.16393 14.3655 8.53283 13.9966 8.9879 13.9966H20.6029C21.0579 13.9966 21.4268 14.3655 21.4268 14.8206C21.4268 15.2756 21.0579 15.6445 20.6029 15.6445Z" fill="#303322"/>
</svg>
